<?xml version="1.0" standalone="no"?>
<!DOCTYPE svg PUBLIC "-//W3C//DTD SVG 20010904//EN"
 "http://www.w3.org/TR/2001/REC-SVG-20010904/DTD/svg10.dtd">
<svg version="1.0" xmlns="http://www.w3.org/2000/svg"
 width="512.000000pt" height="512.000000pt" viewBox="0 0 512.000000 512.000000"
 preserveAspectRatio="xMidYMid meet">
<metadata>
Created by potrace 1.14, written by Peter Selinger 2001-2017
</metadata>
<g transform="translate(0.000000,512.000000) scale(0.100000,-0.100000)"
fill="#000000" stroke="none">
<path d="M2442 5105 c-184 -44 -344 -207 -383 -392 -11 -56 -8 -201 6 -234 5
-13 -127 -104 -602 -421 -334 -223 -613 -407 -618 -411 -6 -3 -35 10 -65 29
-157 99 -366 102 -529 6 -107 -63 -202 -190 -236 -315 -16 -60 -13 -212 5
-267 43 -130 154 -262 264 -313 166 -78 364 -67 503 26 l48 33 212 -141 c117
-77 212 -142 212 -145 0 -3 -96 -69 -213 -147 -173 -115 -217 -139 -226 -128
-20 24 -153 83 -210 94 -124 22 -271 -6 -372 -71 -107 -68 -201 -202 -226
-324 -14 -67 -8 -195 12 -259 53 -171 218 -320 389 -351 43 -8 170 -8 195 0
11 4 30 9 42 11 27 5 116 47 156 74 l30 21 615 -410 c536 -357 614 -412 611
-432 -1 -13 -5 -59 -8 -103 -10 -142 41 -277 144 -380 284 -287 759 -154 862
240 17 68 12 195 -11 266 -12 35 -25 69 -30 76 -7 8 192 213 670 691 l680 680
63 -26 c84 -34 225 -40 315 -13 139 42 248 131 315 256 176 331 -74 745 -450
745 -67 0 -166 -21 -214 -46 l-28 -14 -678 678 c-659 659 -679 680 -666 703
26 51 45 152 43 233 -5 226 -151 413 -374 478 -62 19 -182 20 -253 3z m-183
-909 c26 -23 132 -72 185 -85 85 -21 194 -15 282 14 l78 26 623 -623 624 -624
-491 164 -490 164 0 42 c0 200 -161 400 -374 463 -46 14 -186 20 -226 10 -122
-30 -219 -84 -285 -160 -48 -54 -105 -147 -105 -171 0 -8 -6 -16 -12 -19 -14
-5 -1061 -7 -1056 -2 9 9 1222 815 1226 815 3 0 13 -6 21 -14z m-199 -1103 c0
-7 -516 -346 -525 -346 -12 0 -509 330 -512 340 -2 5 231 8 517 8 286 0 520
-1 520 -2z m1485 -337 c352 -117 550 -188 550 -196 0 -9 -200 -80 -556 -199
l-556 -185 -59 60 c-170 170 -436 201 -634 74 -26 -17 -51 -30 -56 -30 -10 0
-423 273 -423 280 0 3 94 68 210 145 l211 139 32 -19 c28 -17 86 -47 128 -66
9 -5 54 -14 101 -20 160 -24 312 27 424 141 32 32 63 59 68 59 6 1 258 -82
560 -183z m-1737 -558 c250 -166 252 -168 210 -169 -220 -2 -990 0 -993 3 -8
8 509 346 520 340 5 -3 124 -82 263 -174z m1617 -609 l-621 -620 -78 26 c-86
29 -193 35 -280 15 -53 -12 -160 -62 -189 -88 -13 -11 -23 -13 -32 -7 -8 6
-282 188 -609 405 -327 217 -595 398 -595 402 -1 3 234 6 522 6 l523 0 34 -72
c59 -122 208 -249 320 -271 216 -44 364 -4 500 134 96 97 150 215 150 327 l0
42 113 37 c61 20 121 40 132 45 19 8 332 112 348 116 4 1 8 2 10 3 6 5 353
119 362 120 6 1 -269 -278 -610 -620z"/>
</g>
</svg>
